<svg width="221" height="126" viewBox="0 0 221 126" fill="none" xmlns="http://www.w3.org/2000/svg">
<path fill-rule="evenodd" clip-rule="evenodd" d="M80.2746 86.138C80.2746 83.7193 78.0721 81.7557 75.3606 81.7557H5.16416C2.45196 81.7557 0.25 83.7193 0.25 86.138V120.881C0.25 123.3 2.45196 125.264 5.16416 125.264H75.3606C78.0721 125.264 80.2746 123.3 80.2746 120.881V86.138Z" fill="#8ABBB8"/>
<path fill-rule="evenodd" clip-rule="evenodd" d="M14.1642 116.789H5.90579V121.996H14.1642V116.789ZM44.0576 107.058H5.88672V114.446H44.0576V107.058ZM74.4388 107.058H54.846V114.446H74.4388V107.058Z" fill="white"/>
<path d="M80.2744 93.889H0.25V104.111H80.2744V93.889Z" fill="black"/>
<path fill-rule="evenodd" clip-rule="evenodd" d="M12.8282 111.635C12.7962 111.166 12.8554 110.649 12.9724 110.165C13.1535 109.418 13.4806 108.759 13.7855 108.468C14.0493 108.215 14.3378 108.163 14.5783 108.236C14.9222 108.339 15.1254 108.613 15.1629 109.004C15.2167 109.563 14.8955 110.412 14.7766 110.654C14.5011 111.215 14.1514 111.634 13.7488 111.965C13.8062 112.207 13.9042 112.415 14.0881 112.539C14.2831 112.67 14.5626 112.681 14.9427 112.582C15.1443 112.53 15.5588 112.298 15.9611 112.012C15.8934 111.651 15.9649 111.265 16.1237 110.978C16.3685 110.536 16.8021 110.341 17.2049 110.462C17.4782 110.544 17.6269 110.685 17.7037 110.838C17.804 111.038 17.7844 111.305 17.5964 111.593C17.4704 111.786 17.2602 112.003 17.0118 112.216C17.1358 112.305 17.3181 112.348 17.5637 112.344C17.8682 112.34 18.3298 112.131 18.837 111.891C19.7392 111.466 20.7451 110.917 21.3341 110.775C21.8451 110.651 22.1721 110.801 22.3075 111.059C22.4133 111.26 22.5121 111.406 22.6141 111.503C22.6633 111.55 22.7058 111.583 22.7551 111.592C22.8211 111.602 22.8849 111.574 22.9546 111.545C23.0445 111.507 23.1363 111.455 23.232 111.398C23.8965 111.005 24.6987 110.455 25.7945 110.788C26.2471 110.925 26.3705 111.298 26.2907 111.759C26.2681 111.89 26.232 112.028 26.2097 112.156C26.2063 112.176 26.2035 112.2 26.2017 112.224C26.2548 112.221 26.3133 112.212 26.3756 112.201C26.5436 112.174 26.729 112.127 26.9163 112.075C27.3609 111.953 27.8154 111.817 28.1263 111.799C31.4243 111.608 34.7443 111.657 38.0384 111.406C38.2768 111.388 38.4868 111.546 38.5071 111.759C38.5276 111.971 38.3506 112.158 38.1123 112.176C34.8122 112.429 31.4863 112.379 28.1825 112.571C27.8612 112.589 27.3664 112.77 26.9165 112.881C26.5096 112.982 26.1288 113.025 25.8683 112.965C25.4076 112.858 25.2698 112.495 25.3569 112.017C25.3772 111.906 25.4067 111.788 25.4282 111.674C25.4378 111.623 25.4425 111.548 25.4445 111.5C25.0464 111.4 24.7128 111.495 24.4196 111.634C24.1608 111.758 23.9284 111.914 23.7112 112.043C23.3172 112.276 22.945 112.409 22.5954 112.351C22.2787 112.298 21.9255 112.087 21.5952 111.518C21.5379 111.53 21.463 111.547 21.4015 111.568C21.1967 111.636 20.9555 111.742 20.695 111.865C19.8346 112.271 18.7837 112.845 18.0763 113.037C17.8907 113.089 17.723 113.115 17.5802 113.118C16.9988 113.127 16.6044 112.959 16.3451 112.718C15.8792 113.03 15.415 113.265 15.1839 113.324C14.4608 113.512 13.9375 113.405 13.5666 113.156C13.319 112.99 13.1333 112.749 13.0095 112.456C12.8866 112.522 12.7605 112.585 12.6321 112.644C11.8357 113.009 10.9348 113.239 10.0556 113.634C9.84194 113.729 9.58126 113.652 9.47389 113.462C9.36652 113.27 9.45287 113.038 9.66664 112.943C10.3763 112.625 11.0997 112.412 11.7722 112.151C12.1455 112.006 12.5025 111.846 12.8282 111.635ZM14.303 109.136C14.1826 109.309 14.0693 109.548 13.9717 109.819C13.9141 109.98 13.8625 110.152 13.8196 110.329C13.7846 110.474 13.7551 110.621 13.7328 110.77C13.823 110.641 13.9065 110.499 13.9829 110.343C14.0637 110.179 14.2698 109.662 14.2997 109.239C14.3022 109.204 14.3034 109.169 14.303 109.136Z" fill="black"/>
<path d="M220.273 67.3827H100.699V125.195H220.273V67.3827Z" fill="#E4E4E6"/>
<path fill-rule="evenodd" clip-rule="evenodd" d="M182.796 118.712C183.238 117.272 183.945 115.827 184.925 114.619C185.12 114.377 185.45 113.909 185.83 113.6C186.183 113.313 186.585 113.164 186.974 113.241C187.423 113.329 187.653 113.621 187.702 114.036C187.772 114.652 187.336 115.616 187.167 115.887C186.339 117.224 184.988 118.311 183.553 119.189C183.491 119.425 183.449 119.672 183.468 119.899C183.493 120.19 183.636 120.443 184.036 120.543C184.855 120.745 185.763 120.535 186.631 120.147C186.964 119.997 187.29 119.822 187.603 119.629C187.611 119.508 187.624 119.397 187.637 119.307C187.817 118.028 188.629 116.828 189.606 115.902C189.759 115.757 190.265 115.242 190.679 115.088C191.034 114.957 191.352 115.002 191.585 115.267C191.801 115.513 191.852 115.86 191.75 116.249C191.579 116.903 190.968 117.708 190.713 118.021C190.204 118.646 189.407 119.387 188.48 120.015C188.488 120.055 188.499 120.094 188.515 120.129C188.524 120.149 188.53 120.171 188.553 120.179C188.946 120.311 189.371 120.164 189.787 119.945C190.567 119.534 191.299 118.829 191.756 118.452C191.955 118.288 192.282 117.983 192.627 117.798C192.959 117.619 193.311 117.553 193.624 117.651C194.008 117.773 194.151 118.009 194.152 118.317C194.152 118.496 194.08 118.719 193.974 118.955C193.88 119.165 193.758 119.391 193.688 119.601C193.665 119.668 193.647 119.732 193.644 119.793C193.641 119.835 193.659 119.869 193.714 119.888C193.958 119.974 194.17 119.917 194.366 119.802C194.649 119.634 194.903 119.363 195.157 119.09C195.525 118.692 195.892 118.289 196.286 118.061C196.632 117.861 196.999 117.779 197.4 117.868C197.974 117.995 198.081 118.421 197.93 118.983C197.882 119.163 197.812 119.359 197.778 119.543C197.76 119.653 197.716 119.766 197.839 119.815C198.029 119.89 198.209 119.855 198.385 119.785C198.552 119.718 198.717 119.619 198.88 119.516C199.182 119.327 199.482 119.122 199.787 118.989C200.044 118.878 200.306 118.814 200.573 118.821C200.801 118.828 200.951 118.892 201.055 118.969C201.182 119.063 201.257 119.188 201.287 119.339C201.303 119.419 201.304 119.509 201.296 119.603C201.292 119.653 201.288 119.731 201.286 119.786C202.171 119.889 203.16 119.642 204.045 119.59C205.551 119.5 207.073 119.579 208.573 119.458C208.812 119.439 209.022 119.596 209.043 119.808C209.065 120.021 208.889 120.209 208.651 120.228C207.144 120.35 205.616 120.271 204.102 120.361C203.14 120.418 202.059 120.672 201.102 120.544C200.883 120.515 200.738 120.439 200.637 120.351C200.522 120.25 200.456 120.126 200.429 119.985C200.41 119.888 200.412 119.779 200.42 119.67C200.422 119.651 200.424 119.626 200.426 119.602C200.256 119.627 200.092 119.712 199.926 119.807C199.642 119.969 199.361 120.173 199.074 120.33C198.568 120.607 198.045 120.742 197.487 120.521C197.084 120.362 196.927 120.092 196.902 119.767C196.884 119.546 196.945 119.288 197.019 119.038C197.053 118.923 197.089 118.809 197.112 118.705C197.117 118.677 197.122 118.639 197.124 118.608C196.94 118.592 196.78 118.683 196.62 118.801C196.346 119.003 196.089 119.298 195.824 119.582C195.513 119.918 195.192 120.24 194.844 120.446C194.41 120.702 193.936 120.798 193.397 120.608C192.911 120.438 192.759 120.131 192.778 119.761C192.79 119.516 192.906 119.226 193.04 118.943C193.104 118.807 193.171 118.672 193.221 118.546C193.241 118.497 193.259 118.429 193.271 118.378C193.242 118.384 193.213 118.397 193.184 118.409C193.104 118.439 193.026 118.485 192.95 118.534C192.707 118.693 192.487 118.901 192.344 119.02C191.854 119.424 191.063 120.17 190.228 120.611C189.566 120.96 188.872 121.113 188.246 120.902C188.011 120.822 187.844 120.67 187.739 120.474C187.504 120.606 187.264 120.729 187.021 120.837C185.946 121.318 184.816 121.538 183.805 121.288C182.877 121.058 182.588 120.429 182.603 119.737C182.506 119.789 182.411 119.839 182.315 119.89C181.693 120.217 181.015 120.627 180.318 120.821C180.324 120.82 180.342 120.814 180.342 120.814C180.342 120.814 180.231 120.848 180.18 120.852C180.103 120.859 180.037 120.849 179.986 120.834C179.888 120.805 179.816 120.752 179.765 120.688C179.627 120.514 179.673 120.273 179.868 120.15C179.93 120.111 179.999 120.088 180.068 120.081C180.701 119.904 181.309 119.521 181.874 119.225C182.182 119.063 182.49 118.893 182.796 118.712ZM180.453 120.218L180.458 120.225L180.457 120.223L180.453 120.218ZM180.437 120.202L180.443 120.208L180.441 120.206L180.437 120.202ZM180.421 120.188L180.427 120.193L180.424 120.19L180.421 120.188ZM180.404 120.174L180.407 120.177L180.405 120.175L180.404 120.174ZM190.935 115.851C190.853 115.899 190.739 115.969 190.668 116.028C190.475 116.188 190.31 116.363 190.237 116.432C189.504 117.127 188.865 117.993 188.597 118.932C189.174 118.475 189.666 117.991 190.011 117.567C190.199 117.335 190.621 116.797 190.83 116.293C190.887 116.154 190.93 116.019 190.934 115.897C190.935 115.881 190.936 115.866 190.935 115.851ZM183.967 117.961C184.944 117.27 185.821 116.462 186.409 115.514C186.522 115.332 186.798 114.757 186.839 114.294C186.846 114.22 186.846 114.151 186.835 114.089C186.829 114.048 186.832 114.004 186.788 113.996C186.731 113.984 186.677 114.007 186.623 114.033C186.551 114.068 186.482 114.117 186.414 114.171C186.081 114.443 185.799 114.86 185.627 115.072C184.924 115.939 184.373 116.936 183.967 117.961Z" fill="black"/>
<path fill-rule="evenodd" clip-rule="evenodd" d="M167.486 106.862V105.942C167.486 105.59 167.778 105.304 168.136 105.304C168.495 105.304 168.786 105.59 168.786 105.942V107.428C168.786 107.779 168.495 108.065 168.136 108.065H168.135C168.045 108.112 167.942 108.138 167.833 108.138H111.344C111.23 108.138 111.123 108.109 111.03 108.059C110.672 108.057 110.383 107.772 110.383 107.421V105.942C110.383 105.59 110.674 105.304 111.033 105.304C111.392 105.304 111.683 105.59 111.683 105.942V106.862H167.486ZM189.92 93.0485V91.8507C189.92 91.4989 190.212 91.213 190.57 91.213C190.929 91.213 191.221 91.4989 191.221 91.8507V93.3365C191.221 93.4747 191.176 93.6022 191.1 93.7064C191.088 94.0486 190.802 94.3239 190.45 94.3239H111.079C111.072 94.3239 111.064 94.3239 111.057 94.3239C111.048 94.3239 111.04 94.3239 111.033 94.3239C110.674 94.3239 110.383 94.038 110.383 93.6862V92.2067C110.383 91.8549 110.674 91.569 111.033 91.569C111.392 91.569 111.683 91.8549 111.683 92.2067V93.0485H189.92ZM110.657 80.9257L110.704 79.4409C110.715 79.0891 111.016 78.8128 111.374 78.8234C111.733 78.8351 112.014 79.1295 112.004 79.4803L111.978 80.3093H190.074V79.4611C190.074 79.1093 190.366 78.8234 190.724 78.8234C191.083 78.8234 191.374 79.1093 191.374 79.4611V80.947C191.374 81.2988 191.083 81.5847 190.724 81.5847C190.717 81.5847 190.708 81.5847 190.7 81.5847C190.693 81.5847 190.685 81.5847 190.678 81.5847H111.309C111.306 81.5847 111.302 81.5847 111.298 81.5847H111.295C111.23 81.5836 111.168 81.573 111.11 81.5549C111.008 81.523 110.917 81.4678 110.844 81.3955L110.841 81.3923L110.838 81.3891L110.836 81.387C110.764 81.3126 110.71 81.2223 110.681 81.1213C110.665 81.0639 110.656 81.0022 110.657 80.9395V80.9353C110.657 80.9321 110.657 80.9289 110.657 80.9257Z" fill="white"/>
<path fill-rule="evenodd" clip-rule="evenodd" d="M208.511 108.758V105.305C208.511 104.985 208.802 104.725 209.161 104.725C209.52 104.725 209.811 104.985 209.811 105.305V109.337C209.811 109.658 209.521 109.917 209.161 109.917H176.939C176.579 109.917 176.289 109.658 176.289 109.337V105.305C176.289 104.985 176.581 104.725 176.939 104.725C177.298 104.725 177.589 104.985 177.589 105.305V108.758H208.511Z" fill="white"/>
<path fill-rule="evenodd" clip-rule="evenodd" d="M177.589 101.148V105.302C177.589 105.622 177.298 105.882 176.939 105.882C176.581 105.882 176.289 105.622 176.289 105.302V100.568C176.289 100.248 176.579 99.9879 176.939 99.9879H209.161C209.521 99.9879 209.811 100.248 209.811 100.568V105.302C209.811 105.622 209.52 105.882 209.161 105.882C208.802 105.882 208.511 105.622 208.511 105.302V101.148H177.589Z" fill="white"/>
<path fill-rule="evenodd" clip-rule="evenodd" d="M179.902 107.52H183.212C183.571 107.52 183.862 107.26 183.862 106.941C183.862 106.621 183.571 106.361 183.212 106.361H179.902C179.543 106.361 179.252 106.621 179.252 106.941C179.252 107.26 179.543 107.52 179.902 107.52ZM191.373 107.52H194.681C195.04 107.52 195.332 107.26 195.332 106.941C195.332 106.621 195.04 106.361 194.681 106.361H191.373C191.014 106.361 190.722 106.621 190.722 106.941C190.722 107.26 191.014 107.52 191.373 107.52ZM185.637 107.52H188.947C189.305 107.52 189.597 107.26 189.597 106.941C189.597 106.621 189.305 106.361 188.947 106.361H185.637C185.278 106.361 184.987 106.621 184.987 106.941C184.987 107.26 185.278 107.52 185.637 107.52ZM197.107 107.52H200.417C200.776 107.52 201.067 107.26 201.067 106.941C201.067 106.621 200.776 106.361 200.417 106.361H197.107C196.749 106.361 196.457 106.621 196.457 106.941C196.457 107.26 196.749 107.52 197.107 107.52ZM202.843 107.52H206.152C206.511 107.52 206.802 107.26 206.802 106.941C206.802 106.621 206.511 106.361 206.152 106.361H202.843C202.484 106.361 202.193 106.621 202.193 106.941C202.193 107.26 202.484 107.52 202.843 107.52Z" fill="white"/>
<path d="M205.273 87.6746C210.304 87.6746 214.383 84.0365 214.383 79.5488C214.383 75.0611 210.304 71.4231 205.273 71.4231C200.241 71.4231 196.162 75.0611 196.162 79.5488C196.162 84.0365 200.241 87.6746 205.273 87.6746Z" fill="white"/>
<path fill-rule="evenodd" clip-rule="evenodd" d="M204.97 75.1966L205.031 71.426C205.111 71.4241 205.192 71.4231 205.272 71.4231C205.483 71.4231 205.691 71.4299 205.898 71.4424L205.836 75.2062C206.612 75.1976 207.42 75.1405 208.251 75.0198C207.705 73.6128 207.037 72.401 206.466 71.4927C206.84 71.5362 207.208 71.5999 207.567 71.683C208.087 72.5653 208.645 73.6505 209.112 74.8729C210.045 74.6883 211.004 74.4206 211.975 74.0476C212.179 74.2448 212.372 74.4516 212.553 74.6661C211.477 75.0961 210.413 75.4034 209.376 75.6111C209.44 75.8025 209.501 75.9957 209.558 76.1929C209.873 77.2568 210.096 78.3961 210.161 79.576L214.381 79.6881C214.377 79.949 214.358 80.206 214.326 80.4602L210.18 80.35C210.171 81.6632 209.953 83.0161 209.436 84.3651C210.23 84.5651 211.037 84.8289 211.852 85.1681C211.635 85.3691 211.407 85.5604 211.169 85.7411C210.481 85.4706 209.8 85.257 209.127 85.0898C208.768 85.859 208.305 86.6244 207.724 87.3762C207.311 87.4795 206.886 87.5569 206.452 87.6071C207.235 86.722 207.83 85.8155 208.269 84.9014C207.38 84.7313 206.513 84.6405 205.679 84.6105L205.628 87.668C205.51 87.6719 205.391 87.6747 205.272 87.6747C205.101 87.6747 204.93 87.6699 204.761 87.6622L204.812 84.6009C203.772 84.6144 202.793 84.7168 201.897 84.8695C202.374 85.745 202.993 86.6446 203.782 87.5655C203.337 87.5008 202.903 87.4061 202.483 87.2853C201.892 86.5209 201.411 85.7711 201.026 85.0386C200.324 85.1903 199.687 85.3681 199.13 85.5479C198.897 85.3575 198.675 85.1575 198.466 84.9468C199.097 84.7313 199.842 84.511 200.678 84.3245C200.055 82.9417 199.767 81.6256 199.713 80.3945C199.708 80.2862 199.705 80.179 199.704 80.0727L196.174 79.9789C196.166 79.8369 196.162 79.6929 196.162 79.5489C196.162 79.4339 196.164 79.3199 196.17 79.2059L199.727 79.2996C199.825 77.8559 200.237 76.5456 200.785 75.3995C199.654 75.1309 198.73 74.8159 198.08 74.5637C198.265 74.3501 198.463 74.1462 198.671 73.95C199.298 74.1829 200.142 74.4574 201.153 74.6902C201.886 73.377 202.77 72.3208 203.487 71.5787C203.919 71.5023 204.361 71.453 204.811 71.4328C204.124 72.0531 202.952 73.2427 202.014 74.87C202.907 75.0352 203.901 75.1599 204.97 75.1966ZM209.31 80.3268L205.752 80.2331L205.692 83.8394C206.623 83.8713 207.591 83.9747 208.585 84.1728C209.09 82.8808 209.302 81.584 209.31 80.3268ZM200.572 80.0959C200.573 80.1848 200.575 80.2746 200.579 80.3645C200.63 81.5511 200.918 82.818 201.535 84.1506C202.537 83.9689 203.644 83.8452 204.825 83.8307L204.886 80.2099L200.572 80.0959ZM208.521 75.7619C207.591 75.9039 206.688 75.9687 205.823 75.9774L205.765 79.46L209.289 79.5528C209.225 78.4492 209.014 77.3843 208.72 76.389C208.658 76.1774 208.591 75.9677 208.521 75.7619ZM201.632 75.5831C201.096 76.676 200.691 77.9342 200.593 79.3228L204.899 79.4368L204.957 75.9658C203.746 75.9252 202.627 75.7773 201.632 75.5831Z" fill="#E4E4E6"/>
<path fill-rule="evenodd" clip-rule="evenodd" d="M126.787 108.415C127.058 113.229 127.923 117.326 129.379 121.106C130.331 123.604 132.961 125.283 135.918 125.283C135.918 125.286 135.918 125.286 135.918 125.286C138.41 125.286 140.658 123.949 141.613 121.896C143.268 118.351 144.662 113.997 145.66 108.415H126.787Z" fill="#798ADF"/>
<path fill-rule="evenodd" clip-rule="evenodd" d="M126.985 110.678C126.967 110.492 126.95 110.304 126.932 110.115L131.84 110.196C131.84 110.196 132.966 113.545 133.998 116.519C135.374 120.484 136.687 123.118 139.532 124.256C139.261 124.429 138.974 124.583 138.675 124.714C137.762 125.012 136.631 125.284 135.941 125.284C135.941 125.284 135.941 125.284 135.941 125.282C135.923 125.282 135.903 125.282 135.885 125.282C135.777 125.281 135.669 125.278 135.562 125.273L135.527 125.271C135.482 125.268 135.435 125.266 135.39 125.262L135.356 125.26L135.323 125.257L135.288 125.255C135.277 125.254 135.266 125.253 135.254 125.252L135.236 125.25C135.196 125.247 135.157 125.242 135.117 125.238C135.095 125.236 135.073 125.233 135.052 125.231L135.017 125.227C134.962 125.22 134.906 125.213 134.85 125.205L134.817 125.2C134.806 125.198 134.794 125.197 134.783 125.195L134.75 125.19C134.739 125.188 134.728 125.187 134.716 125.185L134.685 125.179C134.648 125.173 134.611 125.168 134.574 125.161C134.393 125.128 134.214 125.089 134.039 125.044C133.98 125.029 133.923 125.014 133.864 124.997C133.788 124.976 133.713 124.953 133.638 124.93C133.61 124.921 133.582 124.911 133.553 124.903L133.491 124.882C133.055 124.734 132.639 124.548 132.248 124.328L132.193 124.296C132.171 124.283 132.149 124.271 132.129 124.258L132.082 124.23L132.027 124.197L132.009 124.187C131.825 124.073 131.648 123.952 131.477 123.822C131.418 123.778 131.359 123.733 131.302 123.686L131.253 123.646L131.204 123.606C131.188 123.592 131.173 123.579 131.157 123.565L131.117 123.531C130.896 123.338 130.689 123.132 130.498 122.915C130.399 122.802 130.304 122.686 130.214 122.567C130.186 122.529 130.158 122.491 130.13 122.452C130.095 122.404 130.061 122.355 130.028 122.305L130.017 122.29L130.006 122.273C129.929 122.158 129.857 122.041 129.787 121.921L129.772 121.894L129.761 121.873C129.669 121.708 129.585 121.539 129.508 121.365L129.496 121.336C129.478 121.295 129.461 121.255 129.445 121.214C129.43 121.178 129.416 121.141 129.402 121.104L129.369 121.02L129.359 120.993L129.338 120.937L129.325 120.904L129.305 120.852L129.292 120.818L129.274 120.768L129.261 120.733L129.241 120.682L129.229 120.648L129.21 120.594L129.198 120.564L129.174 120.496L129.168 120.48L129.136 120.395L129.129 120.372L129.106 120.311L129.095 120.279L129.075 120.226L129.064 120.191L129.045 120.14L129.033 120.105L129.015 120.054L129.003 120.019L128.984 119.966L128.974 119.934L128.952 119.873L128.943 119.849L128.915 119.763L128.909 119.746L128.886 119.678L128.875 119.647L128.857 119.592L128.846 119.558L128.827 119.506L128.817 119.47L128.799 119.419L128.787 119.384L128.77 119.331L128.759 119.297L128.741 119.24L128.731 119.211L128.704 119.127L128.703 119.125L128.676 119.038L128.667 119.01L128.647 118.952L128.638 118.918L128.62 118.865L128.61 118.829L128.593 118.777L128.582 118.741L128.566 118.689L128.555 118.655L128.538 118.598L128.529 118.567L128.508 118.498L128.502 118.48L128.476 118.393L128.469 118.368L128.45 118.305L128.441 118.272L128.424 118.217L128.413 118.181L128.398 118.129L128.389 118.092L128.373 118.04L128.363 118.004L128.347 117.949L128.338 117.915L128.319 117.853L128.313 117.827L128.288 117.738L128.282 117.721L128.263 117.651L128.254 117.619L128.239 117.562L128.229 117.526L128.214 117.473L128.204 117.435L128.19 117.383L128.181 117.345L128.165 117.292L128.157 117.256L128.142 117.197L128.133 117.166L128.111 117.084L128.109 117.077L128.086 116.988L128.079 116.957L128.064 116.899L128.055 116.862L128.041 116.808L128.031 116.77L128.018 116.717L128.008 116.679L127.995 116.626L127.987 116.589L127.973 116.532L127.964 116.498L127.948 116.431L127.942 116.407L127.92 116.318L127.914 116.289L127.899 116.227L127.89 116.19L127.878 116.135L127.868 116.097L127.857 116.044L127.848 116.004L127.836 115.952L127.826 115.912L127.814 115.859L127.806 115.82L127.793 115.761L127.785 115.728L127.766 115.639L127.76 115.613L127.746 115.547L127.737 115.509L127.725 115.454L127.717 115.413L127.706 115.362L127.697 115.32L127.686 115.269L127.678 115.227L127.667 115.175L127.658 115.134L127.647 115.08L127.64 115.04L127.626 114.973L127.62 114.949L127.617 114.93L127.603 114.858L127.594 114.817L127.585 114.764L127.576 114.721L127.566 114.67L127.558 114.626L127.548 114.577L127.539 114.532L127.53 114.483L127.522 114.437L127.512 114.388L127.504 114.344L127.495 114.29L127.487 114.249L127.471 114.159L127.462 114.115L127.454 114.064L127.445 114.017L127.437 113.97L127.429 113.921L127.42 113.875L127.412 113.827L127.404 113.78L127.395 113.731L127.387 113.686L127.379 113.635L127.372 113.591L127.364 113.54L127.357 113.499L127.348 113.449L127.34 113.397L127.333 113.355L127.325 113.302L127.318 113.26L127.309 113.206L127.303 113.164L127.294 113.111L127.289 113.068L127.28 113.014L127.274 112.973L127.265 112.917L127.26 112.88L127.251 112.821L127.248 112.796L127.237 112.728L127.226 112.649L127.224 112.636L127.215 112.572L127.21 112.54L127.202 112.479L127.197 112.443L127.188 112.382L127.184 112.346L127.175 112.285L127.171 112.251L127.162 112.188L127.158 112.157L127.149 112.089L127.147 112.073L127.136 111.996C127.133 111.965 127.128 111.934 127.125 111.903L127.114 111.824L127.113 111.808L127.104 111.737L127.101 111.711L127.093 111.641L127.089 111.614L127.081 111.544L127.078 111.517L127.069 111.446L127.067 111.424L127.058 111.347L127.057 111.339C127.043 111.219 127.03 111.099 127.017 110.977L127.016 110.968L127.007 110.886L127.005 110.87L126.997 110.79L126.995 110.773L126.988 110.691L126.985 110.678Z" fill="#233DC7"/>
<path fill-rule="evenodd" clip-rule="evenodd" d="M68.0352 108.528C68.306 113.342 69.1706 117.438 70.6268 121.219C71.5791 123.717 74.2087 125.396 77.1665 125.396C77.1665 125.399 77.1665 125.399 77.1665 125.399C79.6585 125.399 81.9056 124.062 82.8612 122.009C84.5156 118.464 85.91 114.109 86.9079 108.528H68.0352Z" fill="#233DC7"/>
<path fill-rule="evenodd" clip-rule="evenodd" d="M68.0742 109.16C68.0601 108.95 68.0471 108.741 68.0352 108.528H86.9079C86.8168 109.034 86.7237 109.529 86.6272 110.015L83.5427 109.97C82.9717 111.602 79.5154 121.459 77.8177 123.044C76.4276 124.341 75.7049 124.772 74.9877 125.082C72.9963 124.492 71.37 123.109 70.6495 121.278L70.6485 121.276L70.6398 121.252L70.6268 121.219C70.4112 120.659 70.2086 120.092 70.019 119.517C69.993 119.44 69.968 119.362 69.9431 119.284C69.8738 119.072 69.8077 118.857 69.7416 118.641C69.7286 118.595 69.7145 118.55 69.7004 118.503C69.6246 118.247 69.5498 117.988 69.4783 117.727C69.4176 117.507 69.3581 117.285 69.3017 117.062C69.2215 116.751 69.1457 116.438 69.0731 116.121C69.0222 115.9 68.9734 115.676 68.9258 115.451C68.9063 115.355 68.8857 115.259 68.8662 115.163L68.8467 115.064C68.8185 114.924 68.7903 114.783 68.7643 114.641C68.7156 114.385 68.669 114.126 68.6246 113.865L68.6072 113.764C68.5769 113.588 68.5487 113.41 68.5205 113.231L68.5086 113.152L68.5054 113.129C68.4079 112.486 68.3223 111.832 68.2497 111.163L68.2388 111.056L68.2367 111.038C68.2161 110.84 68.1955 110.641 68.1771 110.44C68.1381 110.019 68.1034 109.593 68.0742 109.16Z" fill="#798ADF"/>
<path fill-rule="evenodd" clip-rule="evenodd" d="M158.201 63.4435C159.005 63.2423 159.666 63.06 159.831 62.9684C161.764 61.8954 163.396 60.1239 164.261 58.1136C165.098 56.1734 165.307 54.0203 164.292 52.1157C163.074 53.6781 161.142 54.7396 159.381 54.8636C157.42 55.0017 155.535 54.1463 154.588 51.6716C153.472 48.7546 155.646 46.4321 158.893 45.8502C160.135 45.6275 161.558 45.6941 162.97 46.1441C162.883 45.3926 162.674 44.6572 162.367 43.9495C161.559 42.084 160.122 40.4007 158.416 39.0992C157.979 38.7856 157.911 38.2151 158.262 37.8259C158.613 37.4366 159.253 37.3752 159.69 37.6887C161.774 39.0972 163.555 40.9784 164.638 43.0972C165.359 44.5069 165.755 46.0226 165.734 47.5886C166.635 48.2765 167.469 49.1755 168.176 50.3145C169.945 53.1678 169.973 56.499 168.881 59.5594C167.807 62.5714 165.555 65.2709 162.828 66.9909C162.486 67.2074 161.164 67.7446 159.629 68.2684C159.816 69.0811 159.988 69.9276 160.147 70.8127C163.116 87.304 163 102.71 157.541 118.247C155.992 122.626 151.438 125.605 146.291 125.605C146.29 125.606 146.29 125.606 146.29 125.606C141.719 125.606 137.655 123.007 136.19 119.143C134.428 114.5 132.363 109.055 132.363 109.055H82.3195C82.3195 109.055 79.7419 115.557 77.8188 120.411C76.5847 123.525 73.2845 125.606 69.5824 125.606H69.5813C64.9733 125.606 60.9729 122.773 59.9291 118.77C58.7411 114.212 57.3964 109.055 57.3964 109.055H42.3416C40.5941 109.055 38.9554 108.144 38.3367 106.687C36.4102 102.148 32.5742 90.4697 38.7064 76.8397C39.1568 75.8396 40.3223 75.2414 41.5316 75.2414C45.5425 75.2385 54.4023 75.2385 54.4023 75.2385C54.4023 75.2385 55.7419 57.04 74.2196 47.4437L69.1934 38.8879C69.1934 38.8879 77.5978 35.9349 85.0379 44.4701C102.77 40.7488 118.406 40.3487 138.319 45.6179C142.98 46.8442 147.196 49.1447 150.542 52.2875C152.872 54.4703 154.707 56.6574 156.163 59.1382C156.947 60.4732 157.62 61.8934 158.201 63.4435ZM162.32 49.9193C161.728 49.5453 161.097 49.3278 160.476 49.2584C159.078 49.1025 157.591 49.5769 157.954 50.7451C158.266 51.753 159.015 52.0897 159.818 51.8679C160.807 51.5945 161.787 50.8653 162.32 49.9193Z" fill="#233DC7"/>
<path fill-rule="evenodd" clip-rule="evenodd" d="M81.998 109.948L83.6113 105.521C83.6893 105.305 83.9287 105.169 84.1801 105.197C84.4325 105.225 84.6275 105.408 84.6449 105.635L84.9092 109.057H82.3512L81.998 109.948ZM129.337 109.057L130.174 105.354C130.212 105.19 130.368 105.068 130.556 105.058C130.744 105.046 130.917 105.15 130.978 105.309C131.592 106.927 132.557 109.469 132.557 109.469L132.553 109.47L132.396 109.057H129.337ZM148.85 78.2586C148.85 65.765 138.075 55.3734 124.11 54.3992C113.917 53.6795 103.783 53.6858 93.7091 54.3969C79.7423 55.3692 68.9651 65.7611 68.9651 78.2557C68.964 78.2557 68.964 78.2557 68.964 78.2557C68.964 91.2045 80.5072 101.808 95.0201 102.189C104.313 102.435 113.571 102.435 122.794 102.192C137.307 101.811 148.85 91.2074 148.85 78.2586ZM48.1747 75.2804C49.0369 76.9927 49.8288 79.3177 50.3714 82.4737C50.4621 83.0004 50.0558 83.4942 49.4648 83.5744C48.8736 83.6555 48.3202 83.2932 48.2295 82.7665C47.621 79.2269 46.712 76.8594 45.7773 75.2814L47.5782 75.2804H48.1747ZM52.3991 75.2804C53.0806 76.5956 53.6944 78.2721 54.1438 80.4097C54.254 80.9344 53.8663 81.4397 53.2785 81.5373C52.6909 81.6359 52.1242 81.29 52.014 80.7662C51.4886 78.2673 50.7402 76.5115 49.968 75.2804H52.3991ZM159.661 68.2697C159.849 69.0824 158.078 63.029 158.234 63.445C159.037 63.2438 159.699 63.0615 159.864 62.9699C159.982 62.9041 160.1 62.8357 160.216 62.7648C160.66 64.047 161.176 65.6896 161.631 67.5469C161.078 67.7662 160.394 68.0194 159.661 68.2697ZM164.324 52.1172C164.125 52.5097 165.906 49.8619 165.766 47.5902C166.457 48.117 167.108 48.7678 167.692 49.5554C167.406 50.7908 166.781 52.3857 165.431 53.9425C165.307 54.0849 165.148 54.1882 164.972 54.2498C164.896 53.5212 164.689 52.8031 164.324 52.1172ZM163.001 46.1456C163.188 48.1862 162.204 50.1837 162.352 49.9208C161.761 49.5468 161.13 49.3293 160.507 49.2599C160.454 49.2539 160.401 49.2489 160.348 49.2448C161.204 47.9848 161.066 46.6189 160.832 45.7422C161.541 45.7829 162.273 45.9131 163.001 46.1456ZM74.2394 47.4518L75.0401 48.8784C75.3077 49.3552 75.091 49.9363 74.5568 50.1751C74.0216 50.4139 73.3704 50.2205 73.1028 49.7436L72.3899 48.4741C72.9869 48.1239 73.6034 47.7827 74.2394 47.4518ZM85.8226 45.5868C85.8226 45.5868 84.7695 44.126 85.0707 44.4716C85.7977 44.319 86.5214 44.1721 87.243 44.0305L87.593 44.472C87.9375 44.9076 87.8205 45.5111 87.3329 45.8188C86.8443 46.1264 86.1671 46.0224 85.8226 45.5868Z" fill="#798ADF"/>
<path d="M40.9463 109.096C44.1452 109.096 46.7384 101.525 46.7384 92.1869C46.7384 82.8485 44.1452 75.2782 40.9463 75.2782C37.7475 75.2782 35.1543 82.8485 35.1543 92.1869C35.1543 101.525 37.7475 109.096 40.9463 109.096Z" fill="#798ADF"/>
<path fill-rule="evenodd" clip-rule="evenodd" d="M37.8281 84.6436V99.7269C37.8281 100.259 38.3136 100.693 38.9116 100.693C39.5095 100.693 39.995 100.259 39.995 99.7269V84.6436C39.995 84.1102 39.5095 83.6772 38.9116 83.6772C38.3136 83.6772 37.8281 84.1102 37.8281 84.6436Z" fill="#0E28B5"/>
<path fill-rule="evenodd" clip-rule="evenodd" d="M41.875 84.6436V99.7269C41.875 100.259 42.3605 100.693 42.9585 100.693C43.5564 100.693 44.0419 100.259 44.0419 99.7269V84.6436C44.0419 84.1102 43.5564 83.6772 42.9585 83.6772C42.3605 83.6772 41.875 84.1102 41.875 84.6436Z" fill="#0E28B5"/>
<path fill-rule="evenodd" clip-rule="evenodd" d="M58.519 70.8994C58.4956 71.4465 58.4257 72.6188 58.7476 73.6753C59.1511 74.9995 60.0972 76.1446 62.1056 76.2456C62.933 76.2869 64.0682 76.1918 64.9938 75.3925C65.7856 74.709 66.4962 73.418 66.4402 70.9164L64.2733 70.9554C64.3112 72.635 64.0183 73.5449 63.4867 74.0042C63.089 74.347 62.5829 74.3338 62.2276 74.3161C61.3683 74.2726 61.0113 73.7351 60.8387 73.1681C60.5844 72.3335 60.6657 71.4052 60.6844 70.9731L58.519 70.8994Z" fill="black"/>
<path d="M129.787 47.0719H89.5703L93.42 51.3309H133.637L129.787 47.0719Z" fill="black"/>
<path fill-rule="evenodd" clip-rule="evenodd" d="M93.3281 54.4269C93.4679 54.4152 93.6055 54.4047 93.7442 54.395C103.818 53.6839 113.952 53.6776 124.145 54.3972C126.198 54.5405 128.182 54.8872 130.072 55.414V75.6003H93.3281V54.4269Z" fill="#82B5B2"/>
<path fill-rule="evenodd" clip-rule="evenodd" d="M99.9043 54.0476C107.388 53.7347 114.903 53.8112 122.452 54.2857C120.55 58.1254 116.241 60.8078 111.235 60.8078C106.127 60.8078 101.744 58.0141 99.9043 54.0476Z" fill="#A8CFCC"/>
<path fill-rule="evenodd" clip-rule="evenodd" d="M105.035 75.5992V66.1852C105.035 65.0624 106.056 64.152 107.314 64.152C108.573 64.152 109.593 65.0624 109.593 66.1852V75.5992H105.035ZM112.648 75.5992V68.5856C112.648 67.4637 113.669 66.5524 114.927 66.5524C116.185 66.5524 117.207 67.4637 117.207 68.5856V75.5992H112.648Z" fill="#A8CFCC"/>
<path d="M130.072 20.7106H93.3281V49.0195H130.072V20.7106Z" fill="#A8CFCC"/>
<path fill-rule="evenodd" clip-rule="evenodd" d="M99.0371 49.0175C99.5279 43.384 104.815 38.9427 111.256 38.9427C117.697 38.9427 122.985 43.384 123.476 49.0175H99.0371Z" fill="#82B5B2"/>
<path fill-rule="evenodd" clip-rule="evenodd" d="M118.58 20.7106V28.7318C118.58 29.8537 117.559 30.7647 116.301 30.7647C115.043 30.7647 114.022 29.8537 114.022 28.7318V20.7106H118.58ZM110.967 20.7106V26.3313C110.967 27.4533 109.946 28.3642 108.688 28.3642C107.43 28.3642 106.408 27.4533 106.408 26.3313V20.7106H110.967Z" fill="#82B5B2"/>
<path d="M93.3417 85.665C99.7349 85.665 104.918 81.089 104.918 75.4442C104.918 69.7995 99.7349 65.2235 93.3417 65.2235C86.9484 65.2235 81.7656 69.7995 81.7656 75.4442C81.7656 81.089 86.9484 85.665 93.3417 85.665Z" fill="#FFCF84"/>
<path fill-rule="evenodd" clip-rule="evenodd" d="M93.3335 67.4704C98.3167 67.4704 102.363 71.0426 102.363 75.4425C102.363 79.8425 98.3167 83.4147 93.3335 83.4147C93.1311 83.4147 92.9668 83.5598 92.9668 83.7385C92.9668 83.9172 93.1311 84.0623 93.3335 84.0623C98.7216 84.0623 103.096 80.1999 103.096 75.4425C103.096 70.6851 98.7216 66.8228 93.3335 66.8228C93.1311 66.8228 92.9668 66.9678 92.9668 67.1466C92.9668 67.3253 93.1311 67.4704 93.3335 67.4704Z" fill="#FD9909"/>
<path fill-rule="evenodd" clip-rule="evenodd" d="M93.335 83.4147C88.3512 83.4147 84.3052 79.8425 84.3052 75.4425C84.3052 71.0426 88.3512 67.4704 93.335 67.4704C93.5375 67.4704 93.7018 67.3253 93.7018 67.1466C93.7018 66.9678 93.5375 66.8228 93.335 66.8228C87.9464 66.8228 83.5723 70.6851 83.5723 75.4425C83.5723 80.1999 87.9464 84.0623 93.335 84.0623C93.5375 84.0623 93.7018 83.9172 93.7018 83.7385C93.7018 83.5598 93.5375 83.4147 93.335 83.4147Z" fill="#FD9909"/>
<path fill-rule="evenodd" clip-rule="evenodd" d="M94.739 85.5917L94.5021 83.9078C94.4772 83.7304 94.6202 83.5686 94.8212 83.5465C95.0222 83.5245 95.2048 83.6506 95.2305 83.828L95.4645 85.494C95.2253 85.5331 94.9833 85.5658 94.739 85.5917ZM96.9036 85.1723L96.2478 83.4637C96.1833 83.2945 96.286 83.1105 96.4782 83.0532C96.6696 82.9958 96.8779 83.0866 96.9425 83.2559L97.5945 84.9536C97.3679 85.0327 97.1376 85.1057 96.9036 85.1723ZM86.964 83.9711L87.9836 82.4909C88.0885 82.3382 88.3144 82.2896 88.4875 82.3825C88.6606 82.4753 88.7156 82.6747 88.6107 82.8274L87.5882 84.3116C87.3755 84.2038 87.1672 84.0901 86.964 83.9711ZM102.87 81.2517L101.185 80.1509C101.023 80.0446 100.988 79.8417 101.109 79.698C101.229 79.5543 101.459 79.524 101.621 79.6303L103.269 80.7068C103.143 80.8924 103.009 81.0742 102.87 81.2517ZM82.3438 78.6301L84.3234 77.8435C84.5076 77.7701 84.7254 77.8429 84.8083 78.0058C84.8912 78.1688 84.809 78.3607 84.6242 78.434L82.5953 79.2404C82.5044 79.0401 82.42 78.8367 82.3438 78.6301ZM104.578 72.9654C104.637 73.174 104.689 73.3852 104.733 73.5985L102.781 74.0049C102.584 74.046 102.386 73.938 102.34 73.7641C102.293 73.5902 102.416 73.4157 102.612 73.3746L104.578 72.9654ZM83.7799 69.689L85.5242 70.6963C85.6936 70.7941 85.7413 70.9949 85.6305 71.1445C85.5198 71.2941 85.2924 71.3361 85.123 71.2382L83.386 70.235C83.5107 70.049 83.6428 69.8669 83.7799 69.689ZM84.9183 68.4396L86.3369 69.3606C86.4997 69.4665 86.5349 69.6694 86.4146 69.8133C86.2951 69.9573 86.0648 69.9882 85.9019 69.8823L84.4313 68.9268C84.5875 68.7599 84.7503 68.5974 84.9183 68.4396ZM100.036 67.1052C100.236 67.2303 100.431 67.3608 100.621 67.4967L99.3527 68.9085C99.2266 69.0485 98.9955 69.0719 98.8371 68.9608C98.6786 68.8498 98.6522 68.6459 98.7777 68.5059L100.036 67.1052ZM98.072 66.113C98.2958 66.2017 98.5158 66.2965 98.7314 66.3968L97.8373 67.8776C97.742 68.0353 97.5197 68.095 97.3407 68.0109C97.1625 67.9268 97.095 67.7305 97.1904 67.5728L98.072 66.113ZM90.7496 65.4822L91.266 67.1077C91.3202 67.2798 91.2065 67.4586 91.0114 67.5069C90.8163 67.5552 90.6139 67.4547 90.5596 67.2825L90.0403 65.6471C90.2735 65.5857 90.5097 65.5307 90.7496 65.4822Z" fill="#FD9909"/>
<path d="M124.127 98.33C130.52 98.33 135.703 93.754 135.703 88.1093C135.703 82.4645 130.52 77.8885 124.127 77.8885C117.734 77.8885 112.551 82.4645 112.551 88.1093C112.551 93.754 117.734 98.33 124.127 98.33Z" fill="#FFCF84"/>
<path fill-rule="evenodd" clip-rule="evenodd" d="M124.119 80.1354C129.102 80.1354 133.148 83.7076 133.148 88.1076C133.148 92.5075 129.102 96.0797 124.119 96.0797C123.916 96.0797 123.752 96.2248 123.752 96.4036C123.752 96.5823 123.916 96.7274 124.119 96.7274C129.507 96.7274 133.881 92.865 133.881 88.1076C133.881 83.3502 129.507 79.4878 124.119 79.4878C123.916 79.4878 123.752 79.6329 123.752 79.8116C123.752 79.9903 123.916 80.1354 124.119 80.1354Z" fill="#FD9909"/>
<path fill-rule="evenodd" clip-rule="evenodd" d="M124.12 96.0797C119.136 96.0797 115.09 92.5075 115.09 88.1076C115.09 83.7076 119.136 80.1354 124.12 80.1354C124.323 80.1354 124.487 79.9903 124.487 79.8116C124.487 79.6329 124.323 79.4878 124.12 79.4878C118.732 79.4878 114.357 83.3502 114.357 88.1076C114.357 92.865 118.732 96.7274 124.12 96.7274C124.323 96.7274 124.487 96.5823 124.487 96.4036C124.487 96.2248 124.323 96.0797 124.12 96.0797Z" fill="#FD9909"/>
<path fill-rule="evenodd" clip-rule="evenodd" d="M125.524 98.2567L125.287 96.5728C125.262 96.3955 125.405 96.2336 125.606 96.2115C125.807 96.1895 125.99 96.3156 126.016 96.493L126.25 98.159C126.011 98.1982 125.768 98.2308 125.524 98.2567ZM127.689 97.8374L127.033 96.1288C126.968 95.9595 127.071 95.7755 127.263 95.7182C127.455 95.6608 127.663 95.7517 127.728 95.9209L128.38 97.6186C128.153 97.6977 127.923 97.7707 127.689 97.8374ZM117.749 96.6362L118.769 95.1559C118.874 95.0032 119.1 94.9546 119.273 95.0475C119.446 95.1404 119.501 95.3397 119.396 95.4924L118.373 96.9766C118.161 96.8688 117.952 96.7551 117.749 96.6362ZM133.655 93.9168L131.97 92.816C131.808 92.7096 131.774 92.5067 131.894 92.363C132.014 92.2194 132.244 92.1891 132.407 92.2953L134.054 93.3718C133.928 93.5574 133.794 93.7392 133.655 93.9168ZM113.129 91.2952L115.109 90.5085C115.293 90.4351 115.511 90.5079 115.593 90.6709C115.676 90.8339 115.594 91.0257 115.409 91.0991L113.38 91.9054C113.29 91.7051 113.205 91.5017 113.129 91.2952ZM135.363 85.6304C135.422 85.8391 135.474 86.0502 135.518 86.2636L133.566 86.67C133.37 86.711 133.172 86.6031 133.125 86.4292C133.078 86.2552 133.201 86.0807 133.398 86.0396L135.363 85.6304ZM114.565 82.354L116.309 83.3613C116.479 83.4591 116.526 83.66 116.416 83.8096C116.305 83.9591 116.078 84.0011 115.908 83.9033L114.171 82.9001C114.296 82.7141 114.428 82.5319 114.565 82.354ZM115.703 81.1046L117.122 82.0256C117.285 82.1315 117.32 82.3344 117.2 82.4783C117.08 82.6223 116.85 82.6532 116.687 82.5473L115.216 81.5918C115.373 81.4249 115.535 81.2624 115.703 81.1046ZM130.821 79.7702C131.021 79.8953 131.216 80.0258 131.406 80.1617L130.138 81.5735C130.012 81.7135 129.781 81.7369 129.622 81.6259C129.464 81.5148 129.437 81.3109 129.563 81.1709L130.821 79.7702ZM128.857 78.778C129.081 78.8667 129.301 78.9615 129.517 79.0618L128.622 80.5426C128.527 80.7003 128.305 80.76 128.126 80.6759C127.948 80.5918 127.88 80.3955 127.976 80.2378L128.857 78.778ZM121.535 78.1472L122.051 79.7727C122.105 79.9448 121.992 80.1237 121.797 80.1719C121.601 80.2202 121.399 80.1197 121.345 79.9476L120.825 78.3121C121.059 78.2508 121.295 78.1957 121.535 78.1472Z" fill="#FD9909"/>
<path d="M68.2655 20.6559C74.6588 20.6559 79.8416 16.08 79.8416 10.4352C79.8416 4.79045 74.6588 0.21447 68.2655 0.21447C61.8722 0.21447 56.6895 4.79045 56.6895 10.4352C56.6895 16.08 61.8722 20.6559 68.2655 20.6559Z" fill="#FFCF84"/>
<path fill-rule="evenodd" clip-rule="evenodd" d="M68.2574 2.46133C73.2406 2.46133 77.2866 6.03354 77.2866 10.4335C77.2866 14.8335 73.2406 18.4057 68.2574 18.4057C68.0549 18.4057 67.8906 18.5507 67.8906 18.7295C67.8906 18.9082 68.0549 19.0533 68.2574 19.0533C73.6454 19.0533 78.0201 15.1909 78.0201 10.4335C78.0201 5.67609 73.6454 1.81372 68.2574 1.81372C68.0549 1.81372 67.8906 1.9588 67.8906 2.13753C67.8906 2.31625 68.0549 2.46133 68.2574 2.46133Z" fill="#FD9909"/>
<path fill-rule="evenodd" clip-rule="evenodd" d="M68.2589 18.4057C63.2751 18.4057 59.229 14.8335 59.229 10.4335C59.229 6.03354 63.2751 2.46133 68.2589 2.46133C68.4613 2.46133 68.6256 2.31625 68.6256 2.13753C68.6256 1.9588 68.4613 1.81372 68.2589 1.81372C62.8702 1.81372 58.4961 5.67609 58.4961 10.4335C58.4961 15.1909 62.8702 19.0533 68.2589 19.0533C68.4613 19.0533 68.6256 18.9082 68.6256 18.7295C68.6256 18.5507 68.4613 18.4057 68.2589 18.4057Z" fill="#FD9909"/>
<path fill-rule="evenodd" clip-rule="evenodd" d="M69.6628 20.5826L69.4259 18.8988C69.401 18.7214 69.544 18.5595 69.745 18.5375C69.946 18.5154 70.1286 18.6415 70.1543 18.8189L70.3883 20.4849C70.1492 20.5241 69.9071 20.5567 69.6628 20.5826ZM71.8274 20.1633L71.1716 18.4547C71.1071 18.2854 71.2098 18.1014 71.402 18.0441C71.5934 17.9867 71.8017 18.0776 71.8663 18.2468L72.5183 19.9445C72.2917 20.0237 72.0614 20.0967 71.8274 20.1633ZM61.8878 18.9621L62.9074 17.4818C63.0123 17.3291 63.2382 17.2806 63.4113 17.3734C63.5844 17.4663 63.6394 17.6656 63.5345 17.8184L62.512 19.3026C62.2993 19.1947 62.091 19.0811 61.8878 18.9621ZM77.7936 16.2427L76.1088 15.1419C75.9467 15.0355 75.9122 14.8327 76.0325 14.6889C76.1528 14.5453 76.3824 14.515 76.5452 14.6213L78.1926 15.6977C78.0665 15.8833 77.933 16.0651 77.7936 16.2427ZM57.2676 13.6211L59.2473 12.8344C59.4314 12.7611 59.6492 12.8338 59.7321 12.9968C59.815 13.1598 59.7328 13.3516 59.548 13.425L57.5192 14.2313C57.4282 14.031 57.3439 13.8276 57.2676 13.6211ZM79.5019 7.95633C79.5606 8.165 79.6127 8.37612 79.6567 8.58951L77.7048 8.99589C77.5083 9.03695 77.3102 8.92899 77.264 8.7551C77.2171 8.58115 77.3396 8.40662 77.5361 8.36556L79.5019 7.95633ZM58.7038 4.67992L60.448 5.68722C60.6174 5.78507 60.6651 5.9859 60.5543 6.1355C60.4436 6.28503 60.2162 6.32706 60.0468 6.22921L58.3099 5.22599C58.4346 5.03999 58.5666 4.85788 58.7038 4.67992ZM59.8421 3.43054L61.2607 4.35158C61.4235 4.45746 61.4587 4.66036 61.3385 4.80426C61.2189 4.94823 60.9886 4.97912 60.8257 4.87323L59.3551 3.91774C59.5113 3.75085 59.6742 3.58836 59.8421 3.43054ZM74.9601 2.09613C75.1596 2.22124 75.3547 2.35174 75.5447 2.48767L74.2765 3.89941C74.1504 4.03943 73.9193 4.06287 73.7609 3.9518C73.6024 3.84074 73.576 3.63687 73.7015 3.49685L74.9601 2.09613ZM72.9958 1.10398C73.2196 1.19264 73.4396 1.28745 73.6552 1.38776L72.7611 2.86854C72.6658 3.02623 72.4435 3.08594 72.2645 3.00188C72.0863 2.91776 72.0188 2.72146 72.1142 2.56377L72.9958 1.10398ZM65.6734 0.473137L66.1898 2.09865C66.244 2.27072 66.1304 2.44959 65.9352 2.49784C65.7401 2.54615 65.5377 2.44564 65.4834 2.27351L64.9641 0.638084C65.1974 0.57669 65.4335 0.521643 65.6734 0.473137Z" fill="#FD9909"/>
<path d="M29.1698 58.2523C35.5631 58.2523 40.7459 53.6763 40.7459 48.0315C40.7459 42.3868 35.5631 37.8108 29.1698 37.8108C22.7765 37.8108 17.5938 42.3868 17.5938 48.0315C17.5938 53.6763 22.7765 58.2523 29.1698 58.2523Z" fill="#FFCF84"/>
<path fill-rule="evenodd" clip-rule="evenodd" d="M29.1617 40.0576C34.1448 40.0576 38.1909 43.6298 38.1909 48.0298C38.1909 52.4298 34.1448 56.002 29.1617 56.002C28.9592 56.002 28.7949 56.1471 28.7949 56.3258C28.7949 56.5045 28.9592 56.6496 29.1617 56.6496C34.5497 56.6496 38.9244 52.7872 38.9244 48.0298C38.9244 43.2724 34.5497 39.41 29.1617 39.41C28.9592 39.41 28.7949 39.5551 28.7949 39.7338C28.7949 39.9126 28.9592 40.0576 29.1617 40.0576Z" fill="#FD9909"/>
<path fill-rule="evenodd" clip-rule="evenodd" d="M29.1631 56.002C24.1794 56.002 20.1333 52.4298 20.1333 48.0298C20.1333 43.6298 24.1794 40.0576 29.1631 40.0576C29.3656 40.0576 29.5299 39.9126 29.5299 39.7338C29.5299 39.5551 29.3656 39.41 29.1631 39.41C23.7745 39.41 19.4004 43.2724 19.4004 48.0298C19.4004 52.7872 23.7745 56.6496 29.1631 56.6496C29.3656 56.6496 29.5299 56.5045 29.5299 56.3258C29.5299 56.1471 29.3656 56.002 29.1631 56.002Z" fill="#FD9909"/>
<path fill-rule="evenodd" clip-rule="evenodd" d="M30.5672 58.1789L30.3303 56.4951C30.3053 56.3177 30.4483 56.1559 30.6493 56.1338C30.8503 56.1117 31.0329 56.2378 31.0586 56.4152L31.2926 58.0812C31.0535 58.1204 30.8114 58.153 30.5672 58.1789ZM32.7317 57.7596L32.076 56.051C32.0114 55.8817 32.1141 55.6977 32.3063 55.6404C32.4977 55.583 32.706 55.6739 32.7706 55.8431L33.4227 57.5408C33.196 57.62 32.9657 57.693 32.7317 57.7596ZM22.7921 56.5584L23.8117 55.0782C23.9166 54.9254 24.1425 54.8769 24.3156 54.9697C24.4887 55.0626 24.5437 55.262 24.4388 55.4147L23.4163 56.8989C23.2036 56.791 22.9953 56.6774 22.7921 56.5584ZM38.6979 53.839L37.0131 52.7382C36.851 52.6319 36.8165 52.429 36.9368 52.2852C37.0571 52.1416 37.2867 52.1113 37.4495 52.2176L39.097 53.294C38.9708 53.4796 38.8373 53.6614 38.6979 53.839ZM18.1719 51.2174L20.1516 50.4307C20.3357 50.3574 20.5535 50.4302 20.6364 50.5931C20.7193 50.7561 20.6371 50.9479 20.4523 51.0213L18.4235 51.8276C18.3325 51.6273 18.2482 51.4239 18.1719 51.2174ZM40.4062 45.5526C40.4649 45.7613 40.517 45.9724 40.561 46.1858L38.6092 46.5922C38.4126 46.6333 38.2146 46.5253 38.1684 46.3514C38.1214 46.1775 38.2439 46.0029 38.4405 45.9619L40.4062 45.5526ZM19.6081 42.2762L21.3523 43.2835C21.5217 43.3814 21.5694 43.5822 21.4587 43.7318C21.3479 43.8813 21.1205 43.9234 20.9511 43.8255L19.2142 42.8223C19.3389 42.6363 19.4709 42.4542 19.6081 42.2762ZM20.7464 41.0268L22.165 41.9479C22.3278 42.0538 22.3631 42.2567 22.2428 42.4006C22.1232 42.5445 21.8929 42.5754 21.73 42.4695L20.2594 41.514C20.4156 41.3472 20.5785 41.1847 20.7464 41.0268ZM35.8645 39.6924C36.064 39.8176 36.2591 39.948 36.4491 40.084L35.1808 41.4957C35.0547 41.6357 34.8236 41.6592 34.6652 41.5481C34.5068 41.437 34.4804 41.2332 34.6058 41.0932L35.8645 39.6924ZM33.9002 38.7003C34.1239 38.7889 34.3439 38.8838 34.5596 38.9841L33.6654 40.4648C33.5701 40.6225 33.3478 40.6822 33.1689 40.5982C32.9906 40.5141 32.9232 40.3178 33.0185 40.1601L33.9002 38.7003ZM26.5777 38.0694L27.0941 39.695C27.1484 39.867 27.0347 40.0459 26.8396 40.0941C26.6445 40.1425 26.442 40.042 26.3877 39.8698L25.8684 38.2344C26.1017 38.173 26.3378 38.1179 26.5777 38.0694Z" fill="#FD9909"/>
<path d="M187.359 44.4311C193.753 44.4311 198.935 39.8551 198.935 34.2104C198.935 28.5656 193.753 23.9896 187.359 23.9896C180.966 23.9896 175.783 28.5656 175.783 34.2104C175.783 39.8551 180.966 44.4311 187.359 44.4311Z" fill="#FFCF84"/>
<path fill-rule="evenodd" clip-rule="evenodd" d="M187.351 26.2365C192.334 26.2365 196.38 29.8087 196.38 34.2086C196.38 38.6086 192.334 42.1808 187.351 42.1808C187.149 42.1808 186.984 42.3259 186.984 42.5046C186.984 42.6834 187.149 42.8284 187.351 42.8284C192.739 42.8284 197.114 38.9661 197.114 34.2086C197.114 29.4512 192.739 25.5889 187.351 25.5889C187.149 25.5889 186.984 25.7339 186.984 25.9127C186.984 26.0914 187.149 26.2365 187.351 26.2365Z" fill="#FD9909"/>
<path fill-rule="evenodd" clip-rule="evenodd" d="M187.353 42.1808C182.369 42.1808 178.323 38.6086 178.323 34.2086C178.323 29.8087 182.369 26.2365 187.353 26.2365C187.555 26.2365 187.719 26.0914 187.719 25.9127C187.719 25.7339 187.555 25.5889 187.353 25.5889C181.964 25.5889 177.59 29.4512 177.59 34.2086C177.59 38.9661 181.964 42.8284 187.353 42.8284C187.555 42.8284 187.719 42.6834 187.719 42.5046C187.719 42.3259 187.555 42.1808 187.353 42.1808Z" fill="#FD9909"/>
<path fill-rule="evenodd" clip-rule="evenodd" d="M188.757 44.3578L188.52 42.6739C188.495 42.4965 188.638 42.3347 188.839 42.3126C189.04 42.2906 189.222 42.4167 189.248 42.5941L189.482 44.2601C189.243 44.2992 189.001 44.3319 188.757 44.3578ZM190.921 43.9385L190.265 42.2299C190.201 42.0606 190.304 41.8766 190.496 41.8193C190.687 41.7619 190.895 41.8527 190.96 42.022L191.612 43.7197C191.385 43.7988 191.155 43.8718 190.921 43.9385ZM180.982 42.7373L182.001 41.257C182.106 41.1043 182.332 41.0557 182.505 41.1486C182.678 41.2415 182.733 41.4408 182.628 41.5935L181.606 43.0777C181.393 42.9699 181.185 42.8562 180.982 42.7373ZM196.887 40.0179L195.203 38.917C195.04 38.8107 195.006 38.6078 195.126 38.4641C195.247 38.3205 195.476 38.2901 195.639 38.3964L197.286 39.4729C197.16 39.6585 197.027 39.8403 196.887 40.0179ZM176.361 37.3962L178.341 36.6096C178.525 36.5362 178.743 36.609 178.826 36.7719C178.909 36.9349 178.827 37.1268 178.642 37.2001L176.613 38.0065C176.522 37.8062 176.438 37.6028 176.361 37.3962ZM198.596 31.7315C198.654 31.9401 198.706 32.1513 198.75 32.3647L196.799 32.771C196.602 32.8121 196.404 32.7041 196.358 32.5303C196.311 32.3563 196.433 32.1818 196.63 32.1407L198.596 31.7315ZM177.798 28.4551L179.542 29.4624C179.711 29.5602 179.759 29.7611 179.648 29.9107C179.537 30.0602 179.31 30.1022 179.141 30.0044L177.404 29.0011C177.528 28.8151 177.66 28.633 177.798 28.4551ZM178.936 27.2057L180.354 28.1267C180.517 28.2326 180.553 28.4355 180.432 28.5794C180.313 28.7234 180.082 28.7543 179.92 28.6484L178.449 27.6929C178.605 27.526 178.768 27.3635 178.936 27.2057ZM194.054 25.8713C194.253 25.9964 194.449 26.1269 194.639 26.2628L193.37 27.6746C193.244 27.8146 193.013 27.838 192.855 27.727C192.696 27.6159 192.67 27.412 192.795 27.272L194.054 25.8713ZM192.09 24.8791C192.313 24.9678 192.533 25.0626 192.749 25.1629L191.855 26.6437C191.76 26.8014 191.537 26.8611 191.358 26.777C191.18 26.6929 191.113 26.4966 191.208 26.3389L192.09 24.8791ZM184.767 24.2483L185.284 25.8738C185.338 26.0459 185.224 26.2247 185.029 26.273C184.834 26.3213 184.631 26.2208 184.577 26.0487L184.058 24.4132C184.291 24.3518 184.527 24.2968 184.767 24.2483Z" fill="#FD9909"/>
<path fill-rule="evenodd" clip-rule="evenodd" d="M146.12 21.7585V20.1464C146.12 19.8797 146.362 19.6632 146.661 19.6632C146.96 19.6632 147.203 19.8797 147.203 20.1464V21.7585H149.01C149.309 21.7585 149.552 21.9749 149.552 22.2416C149.552 22.5083 149.309 22.7248 149.01 22.7248H147.203V24.3369C147.203 24.6035 146.96 24.8201 146.661 24.8201C146.362 24.8201 146.12 24.6035 146.12 24.3369V22.7248H144.311C144.012 22.7248 143.77 22.5083 143.77 22.2416C143.77 21.9749 144.012 21.7585 144.311 21.7585H146.12Z" fill="#FD9500"/>
<path fill-rule="evenodd" clip-rule="evenodd" d="M57.7387 40.0471V38.4349C57.7387 38.1682 57.9814 37.9518 58.2804 37.9518C58.5794 37.9518 58.8221 38.1682 58.8221 38.4349V40.0471H60.6293C60.9284 40.0471 61.1711 40.2635 61.1711 40.5302C61.1711 40.7968 60.9284 41.0134 60.6293 41.0134H58.8221V42.6255C58.8221 42.8921 58.5794 43.1087 58.2804 43.1087C57.9814 43.1087 57.7387 42.8921 57.7387 42.6255V41.0134H55.9304C55.6314 41.0134 55.3887 40.7968 55.3887 40.5302C55.3887 40.2635 55.6314 40.0471 55.9304 40.0471H57.7387Z" fill="#FD9500"/>
<path fill-rule="evenodd" clip-rule="evenodd" d="M181.457 56.5752V54.9631C181.457 54.6964 181.7 54.48 181.999 54.48C182.298 54.48 182.541 54.6964 182.541 54.9631V56.5752H184.348C184.647 56.5752 184.89 56.7917 184.89 57.0584C184.89 57.325 184.647 57.5416 184.348 57.5416H182.541V59.1537C182.541 59.4203 182.298 59.6368 181.999 59.6368C181.7 59.6368 181.457 59.4203 181.457 59.1537V57.5416H179.649C179.35 57.5416 179.107 57.325 179.107 57.0584C179.107 56.7917 179.35 56.5752 179.649 56.5752H181.457Z" fill="#FD9500"/>
</svg>
